<svg width="91" height="91" viewBox="0 0 91 91" fill="none" xmlns="http://www.w3.org/2000/svg">
<path fill-rule="evenodd" clip-rule="evenodd" d="M45.0776 45.4736C50.382 45.4736 55.469 43.3665 59.2198 39.6158C62.9705 35.865 65.0776 30.778 65.0776 25.4736C65.0776 20.1693 62.9705 15.0822 59.2198 11.3315C55.469 7.58077 50.382 5.47363 45.0776 5.47363C39.7733 5.47363 34.6862 7.58077 30.9355 11.3315C27.1848 15.0822 25.0776 20.1693 25.0776 25.4736C25.0776 30.778 27.1848 35.865 30.9355 39.6158C34.6862 43.3665 39.7733 45.4736 45.0776 45.4736ZM45.0776 50.4736C58.8851 50.4736 70.0776 39.2811 70.0776 25.4736C70.0776 11.6661 58.8851 0.473633 45.0776 0.473633C31.2701 0.473633 20.0776 11.6661 20.0776 25.4736C20.0776 39.2811 31.2701 50.4736 45.0776 50.4736Z" fill="#3855DF"/>
<path fill-rule="evenodd" clip-rule="evenodd" d="M27.5776 55.5061C28.8351 55.2186 32.5776 60.4736 32.5776 60.4736H57.5776C57.5776 60.4736 61.3201 55.2186 62.5776 55.5061C76.0876 58.5811 90.0776 67.4611 90.0776 76.8986V90.4736H0.0776367V76.8986C0.0776367 67.4611 14.0676 58.5811 27.5776 55.5061ZM65.0776 70.4736V65.4736H70.0776V70.4736H75.0776V75.4736H70.0776V80.4736H65.0776V75.4736H60.0776V70.4736H65.0776Z" fill="#3855DF"/>
</svg>
